<?xml version="1.0" standalone="no"?>
<!DOCTYPE svg PUBLIC "-//W3C//DTD SVG 20010904//EN"
 "http://www.w3.org/TR/2001/REC-SVG-20010904/DTD/svg10.dtd">
<svg version="1.0" xmlns="http://www.w3.org/2000/svg"
 width="1557.000000pt" height="1557.000000pt" viewBox="0 0 1557.000000 1557.000000"
 preserveAspectRatio="xMidYMid meet">
<metadata>
Created by potrace 1.11, written by Peter Selinger 2001-2013
</metadata>
<g transform="translate(0.000000,1557.000000) scale(0.100000,-0.100000)"
fill="#000000" stroke="none">
<path d="M6 14521 c-3 -3 31 -67 74 -141 77 -134 336 -583 507 -880 49 -85
192 -333 318 -550 126 -217 276 -478 335 -580 59 -102 178 -309 265 -460 87
-151 194 -335 237 -408 43 -73 78 -136 78 -138 0 -3 16 -30 35 -60 19 -30 35
-56 35 -59 0 -2 110 -192 244 -422 133 -230 254 -438 268 -463 14 -25 49 -85
78 -135 29 -49 61 -105 71 -123 110 -193 293 -509 299 -517 4 -5 19 -30 32
-55 14 -25 34 -61 45 -80 27 -47 226 -391 298 -515 32 -55 110 -190 173 -300
64 -110 183 -317 266 -460 82 -143 188 -327 236 -410 48 -82 98 -169 113 -192
15 -24 27 -44 27 -47 0 -3 219 -384 438 -761 42 -71 86 -150 100 -174 26 -50
244 -428 397 -691 56 -96 113 -195 127 -220 14 -25 191 -331 393 -680 202
-349 377 -653 390 -675 12 -22 282 -490 600 -1040 318 -550 628 -1088 690
-1195 62 -107 168 -292 237 -410 68 -118 177 -307 242 -420 65 -113 121 -208
125 -213 4 -4 64 91 133 210 131 227 411 712 446 773 10 19 43 76 72 125 29
50 61 105 72 123 10 18 53 93 95 165 42 73 118 206 171 297 52 91 126 219 164
285 38 66 74 129 81 140 6 11 58 101 116 200 57 99 120 207 138 240 19 33 42
74 52 90 10 17 45 77 78 135 68 118 169 293 413 715 146 253 369 639 615 1065
234 405 303 524 402 696 61 104 140 242 175 305 36 62 91 159 123 214 32 55
66 114 75 130 20 36 811 1405 895 1550 32 55 70 121 84 146 14 25 64 112 111
193 47 81 93 161 103 179 117 202 229 396 264 454 24 40 43 77 43 83 0 5 4 10
8 10 4 0 13 12 19 28 7 15 23 45 36 67 28 47 499 860 533 922 13 23 54 93 91
155 68 116 188 322 228 393 12 22 316 549 675 1170 359 622 695 1202 745 1290
51 88 192 333 314 543 121 211 221 385 221 386 0 6 -15561 2 -15564 -3z
m12339 -3683 c3 -2 -42 -30 -98 -61 -56 -32 -109 -62 -117 -68 -8 -5 -100 -58
-205 -117 -104 -60 -360 -206 -567 -325 -208 -120 -395 -227 -415 -238 -21
-12 -94 -54 -163 -94 -69 -40 -262 -151 -430 -247 -168 -97 -321 -185 -340
-197 -19 -11 -42 -24 -50 -28 -8 -4 -80 -45 -160 -91 -80 -47 -170 -98 -200
-115 -30 -16 -59 -33 -65 -37 -5 -4 -30 -18 -55 -32 -47 -26 -487 -279 -750
-431 -85 -49 -175 -101 -200 -115 -25 -13 -72 -40 -105 -60 -33 -19 -73 -42
-90 -52 -16 -9 -185 -106 -375 -215 -190 -109 -361 -207 -380 -217 -19 -11
-39 -24 -45 -28 -5 -4 -35 -21 -65 -37 -30 -17 -84 -47 -120 -68 -36 -21 -78
-45 -95 -55 -178 -102 -633 -364 -645 -371 -36 -22 -599 -344 -639 -365 -24
-13 -49 -28 -55 -33 -6 -4 -36 -22 -66 -38 -30 -17 -209 -119 -398 -228 -189
-108 -345 -195 -346 -193 -1 1 -14 22 -29 45 -15 24 -27 45 -27 47 0 2 -19 37
-43 78 -24 40 -58 98 -75 129 l-32 57 61 36 c33 20 65 36 70 36 5 0 9 5 9 10
0 6 5 10 11 10 6 0 45 20 86 45 40 25 76 45 79 45 2 0 21 11 42 23 33 21 382
224 472 274 20 11 92 53 160 93 69 40 145 84 170 98 25 13 50 28 55 32 6 4 30
19 55 32 25 14 245 141 490 283 245 142 465 269 490 283 36 20 784 452 905
522 17 10 73 42 125 72 52 30 155 89 228 131 72 43 192 111 265 153 72 42 185
108 251 145 65 38 122 69 127 69 5 0 9 5 9 10 0 6 4 10 9 10 5 0 118 63 251
140 133 77 263 153 290 168 26 15 293 169 593 342 l545 315 -3902 3 -3901 2
-33 58 c-46 81 -75 133 -143 249 -32 56 -59 105 -59 110 0 8 9628 9 9635 1z
m193 -563 c-40 -69 -81 -141 -92 -158 -61 -105 -172 -297 -189 -327 -60 -108
-71 -121 -125 -154 -54 -32 -475 -274 -572 -328 -25 -14 -166 -95 -315 -180
-461 -265 -678 -390 -720 -413 -22 -12 -148 -84 -280 -160 -132 -76 -265 -151
-295 -168 -30 -17 -99 -57 -153 -89 -55 -32 -101 -58 -103 -58 -2 0 -21 -11
-42 -23 -20 -13 -57 -35 -82 -49 -25 -14 -295 -168 -600 -343 -305 -175 -571
-326 -590 -337 -19 -11 -48 -27 -65 -37 -16 -10 -190 -109 -385 -221 -195
-111 -360 -207 -367 -214 -9 -8 370 -12 1515 -13 840 -1 1537 -3 1550 -3 l23
0 -19 -27 c-10 -16 -61 -102 -112 -193 -51 -91 -99 -171 -106 -179 -11 -12
-343 -14 -2223 -14 -1216 0 -2213 2 -2216 4 -3 4 387 231 634 370 25 14 102
59 171 99 69 40 150 86 180 103 30 17 72 41 92 54 21 13 40 23 43 23 2 0 29
16 59 35 30 19 57 35 60 35 3 0 51 27 106 60 55 33 102 60 104 60 4 0 154 86
201 115 11 7 23 13 27 14 4 1 44 24 89 51 44 28 82 50 84 50 2 0 43 23 92 52
48 29 109 64 134 78 48 26 393 225 419 241 19 11 458 263 508 291 20 11 42 24
47 28 6 4 35 21 65 37 30 17 84 47 120 68 111 64 120 69 335 192 261 150 388
223 840 483 17 9 109 62 205 117 96 55 226 130 289 167 62 36 115 66 117 66 3
0 21 11 42 23 20 13 57 35 82 49 25 14 90 51 145 83 55 32 298 172 540 310
242 139 521 300 620 357 99 57 181 103 183 102 2 -1 -30 -59 -70 -129z m-2734
-113 c-8 -8 -560 -327 -674 -390 -25 -14 -61 -35 -80 -47 -19 -12 -82 -49
-140 -82 -110 -63 -176 -101 -664 -383 -165 -95 -314 -180 -330 -190 -17 -9
-159 -91 -316 -182 -548 -317 -1265 -731 -1295 -748 -47 -27 -208 -120 -225
-130 -13 -9 -418 -242 -1104 -637 -109 -63 -202 -111 -206 -106 -5 4 -59 96
-120 203 -62 107 -121 209 -131 227 l-19 31 307 178 c170 97 360 207 423 244
127 74 760 439 1020 588 91 52 170 98 175 102 6 4 30 19 55 32 25 14 158 90
295 170 138 79 358 207 490 283 132 76 253 146 270 156 16 11 37 22 45 26 8 4
43 24 78 45 34 21 66 38 71 38 5 0 14 6 20 14 11 13 -95 15 -776 15 -433 0
-792 1 -798 2 -5 1 -631 2 -1389 3 l-1380 1 -29 50 c-16 28 -87 150 -158 273
l-128 222 3361 0 c1849 0 3358 -4 3352 -8z m-4574 -801 c-1 -3 -83 -53 -183
-110 -203 -116 -370 -213 -780 -450 -153 -89 -282 -161 -285 -161 -6 0 -98
153 -222 370 -17 30 -35 62 -40 70 -32 51 -160 275 -160 281 0 3 376 6 835 6
459 0 835 -3 835 -6z m1593 -1 c-5 -4 -91 -54 -193 -112 -180 -103 -379 -218
-625 -361 -66 -38 -141 -81 -166 -96 -25 -14 -112 -64 -193 -111 -81 -47 -166
-96 -189 -109 -54 -30 -208 -119 -227 -131 -8 -5 -44 -26 -80 -46 -36 -20 -90
-51 -120 -69 -75 -45 -358 -209 -406 -236 -21 -12 -85 -48 -141 -80 -56 -33
-104 -59 -107 -59 -2 0 -18 24 -34 53 -16 28 -77 133 -134 233 l-105 180 136
79 c222 129 513 296 561 323 25 14 73 43 108 64 34 21 66 38 71 38 5 0 16 6
23 13 7 7 45 30 83 51 39 22 95 54 125 72 30 18 164 95 297 172 l242 139 541
0 c297 0 537 -3 533 -7z m5039 -256 c-38 -65 -120 -207 -182 -314 -62 -107
-121 -211 -132 -230 -120 -209 -161 -268 -191 -270 -4 0 -26 -12 -48 -26 -23
-14 -62 -37 -87 -51 -26 -14 -87 -49 -137 -78 -118 -69 -802 -464 -838 -484
-16 -9 -36 -20 -45 -26 -68 -40 -490 -284 -520 -300 -20 -11 -55 -31 -77 -45
l-40 -25 -537 0 c-295 0 -534 3 -530 7 7 7 282 168 287 168 1 0 42 23 91 51
169 98 559 322 604 347 25 14 74 42 110 62 36 21 81 47 100 58 19 11 202 115
405 232 204 117 384 220 400 228 17 8 41 23 55 32 14 9 54 33 90 53 36 19 340
193 675 385 336 192 611 349 613 347 1 -1 -29 -55 -66 -121z m-756 -1311 c-26
-43 -51 -85 -56 -93 -5 -8 -18 -31 -28 -50 -21 -37 -206 -356 -220 -378 -7
-11 -73 -14 -343 -14 -184 0 -345 1 -359 1 l-25 1 30 19 c17 10 152 88 300
173 149 86 376 217 505 291 129 75 236 134 238 132 2 -2 -17 -39 -42 -82z"/>
</g>
</svg>
